# xmcd
#
# Track frame offsets: 
#        170
#        12591
#        23480
#        35857
#        49251
#        62559
#        73890
#        87962
#        104618
#        117861
#        128656
#        142557
#        152476
#        166808
#        181899
#        197014
#
# Disc length: 2823 seconds
#
# Revision: 0
# Processed by: cddbd v1.5.1PL0 Copyright (c) Steve Scherf et al.
# Submitted via: ExactAudioCopy v0.95a5
#
DISCID=d10b0510
DTITLE=Ronnie Prophet - Just For You
DYEAR=1978
DGENRE=Country
TTITLE0=Take This Job And Shove It
TTITLE1=Phone Call From Allison
TTITLE2=Sanctuary
TTITLE3=Summertime Dream
TTITLE4=Devil In The Bottle
TTITLE5=Hello Darling
TTITLE6=Yesterday's Gone
TTITLE7=The Lost Letter
TTITLE8=Mamas, Don't Let Your Babies Grow Up To Be Cowboys
TTITLE9=Walk Right Back
TTITLE10=Shine On
TTITLE11=It's Enough
TTITLE12=Back In Love By Monday
TTITLE13=Roses For Mama
TTITLE14=It's A Heartache
TTITLE15=Loving You Would Still Be On My Mind
EXTD=(c)1978 TEEVEE Records Canada  *  TA 2004\n
EXTT0=
EXTT1=
EXTT2=
EXTT3=
EXTT4=
EXTT5=
EXTT6=
EXTT7=
EXTT8=
EXTT9=
EXTT10=
EXTT11=
EXTT12=
EXTT13=
EXTT14=
EXTT15=
PLAYORDER=
